<?xml version="1.0" encoding="UTF-8"?>
<svg id="Layer_2" xmlns="http://www.w3.org/2000/svg" version="1.1" viewBox="0 0 291 100.4">
  <!-- Generator: Adobe Illustrator 29.5.1, SVG Export Plug-In . SVG Version: 2.1.0 Build 141)  -->
  <defs>
    <style>
      .st0, .st1 {
        fill: #f58220;
      }

      .st1 {
        fill-rule: evenodd;
      }

      .st2 {
        fill: #ff2d00;
      }
    </style>
  </defs>
  <g>
    <path class="st2" d="M83.8,82.6c-15,0-26.1-10.5-26.1-25.9v-.2c0-14.3,10.2-26,24.7-26s24.1,13.7,24.1,24.1-2.9,6.8-6.6,6.8h-28.1c1.4,6.4,5.9,9.8,12.2,9.8s7.2-1.2,10.1-3.4c1-.7,2-1.1,3.5-1.1,3.2,0,5.5,2.4,5.5,5.6s-.8,3.3-1.9,4.2c-4.4,3.7-10.1,6.1-17.4,6.1M93,52.6c-.8-6.3-4.6-10.6-10.5-10.6s-9.7,4.2-10.8,10.6h21.4Z"/>
    <path class="st2" d="M215.3,82.6c-15,0-26.1-10.5-26.1-25.9v-.2c0-14.3,10.2-26,24.7-26s24.1,13.7,24.1,24.1-2.9,6.8-6.6,6.8h-28.1c1.4,6.4,5.9,9.8,12.2,9.8s7.2-1.2,10.1-3.4c1-.7,2-1.1,3.5-1.1,3.2,0,5.5,2.4,5.5,5.6s-.8,3.3-1.9,4.2c-4.4,3.7-10.1,6.1-17.4,6.1M224.5,52.5c-.8-6.3-4.6-10.6-10.5-10.6s-9.7,4.2-10.8,10.6h21.4Z"/>
    <path class="st2" d="M242.6,20.5c0-3.9,3.2-7.1,7.1-7.1s7.1,3.2,7.1,7.1v31l17.7-16.8c2.1-2,3.7-3.2,6.3-3.2,3.8,0,6.3,3.1,6.3,6.3s-1.3,4.3-3.3,6.2l-11.2,9.6,13.3,18c1.2,1.7,1.8,3,1.8,4.6,0,3.8-3.1,6.4-6.6,6.4s-4.5-.9-6.2-3.3l-12.4-17.1-5.7,5.1v8.1c0,3.9-3.2,7.1-7.1,7.1s-7.1-3.2-7.1-7.1V20.5Z"/>
    <path class="st2" d="M184,45.3c-2-6.3-6-10.8-11.4-13.2-4-1.8-10.5-2.7-16.7.2-3.4,1.6-6,4-8,6.7-2-2.7-4.6-5.1-8-6.7-6.2-2.9-12.7-2-16.7-.2-5.4,2.4-9.3,6.9-11.3,13.2-.9,2.9-1.1,5.9-.5,9.4.8,5.1,2.9,10.2,6,14.7l7.3,10.5c1.2,1.7,3.2,2.7,5.1,2.7s2.5-.4,3.6-1.1c2.8-2,3.5-5.9,1.6-8.7l-7.3-10.5c-2.1-3-3.4-6.3-4-9.6-.3-1.6-.1-2.6,0-3.6.7-3.2,2.4-4.7,4.5-5.6.8-.3,3.1-1,5.5-.2,3.1.9,6.7,4.4,9.5,9.5,0,0,0,.1,0,.2.6,1.1,1.2,2.3,1.7,3.6,0,0,0,.1,0,.2,0,0,0,0,0,0,.5,1,1.5,1.7,2.7,1.7s2.3-.7,2.8-1.8c0,0,0,0,0,0,0,0,0,0,0,0,0,0,0,0,0,0,3-7.2,7.5-12.4,11.4-13.4,2.4-.7,4.7-.1,5.5.2,2.1.9,3.8,2.5,4.5,5.6.2,1,.3,2,0,3.6-.5,3.3-1.9,6.6-4,9.6l-7.3,10.5c-2,2.8-1.3,6.7,1.6,8.7,1.1.8,2.3,1.1,3.6,1.1,2,0,3.9-.9,5.1-2.7l7.3-10.5c3.1-4.5,5.2-9.6,6-14.7.6-3.6.4-6.6-.5-9.4"/>
    <path class="st2" d="M13.1,98.1c-2.1-.8-4.6-2.5-4.6-6.2s2.8-6.1,5.8-6.1,1.8.2,2.4.4c1.3.4,2,.6,3.1.6,2.6,0,3.9-.5,5.2-3.1l.5-1.2L7.7,41.1c-.4-1-.8-2.4-.8-3.4,0-4.2,3.2-7.1,7.3-7.1s5.8,2.1,7.1,5.6l11.1,29.3,10.9-29.2c1.2-3.1,3.3-5.7,7.1-5.7s7,2.9,7,6.8-.4,2.8-.7,3.5l-18.1,43.9c-4.4,10.7-8.7,14.7-17.5,14.7s-5.6-.5-8-1.4"/>
  </g>
  <g>
    <path class="st0" d="M11.8,22v-12.4l2.6,12.4h4.7s2.6-12.4,2.6-12.4v12.4h4.7V2.9s-7.9,0-7.9,0l-1.7,9-1.7-9h-7.9v19.1h4.7Z"/>
    <path class="st1" d="M105.8,8.9c.3-4.6-4.1-6.3-7.8-6.3s-7.8,1.4-8,5.9c0,2,1,4,2.8,4.8,3.9,1.8,8,1.4,8,3.7s-1.7,2.2-2.8,2.2c-1.8,0-3-1.6-3-3.3h-5.1c0,5.1,3.9,6.4,8.1,6.4s8.4-1.8,8.4-5.8-4.9-5.6-7.9-6.4c-1.3-.4-3-.7-3-2.1,0-.8.4-1.9,2.2-1.9s1.8.3,2.2.7c.5.4.9,1.4.9,2.1h5Z"/>
    <rect class="st0" x="28.4" y="2.9" width="5.1" height="3.2"/>
    <path class="st1" d="M47.6,14.9c0,4.1-3.3,4-3.4,4-2.3,0-3.6-2.6-3.6-6.3s.7-6.9,3.7-6.9,3,1.3,2.9,3h5c-.6-4.3-3.6-6-8.6-6-4.8,0-8.6,3.9-8.6,9.8s3.8,9.7,8.5,9.7,4.5-1.8,4.5-1.8v1.6s3.3,0,4.3,0v-11.5h-8.5v3.5h3.8v.9Z"/>
    <path class="st1" d="M80.1,2.8c-5.6,0-8.9,3.6-8.9,9.8s3.3,9.7,8.9,9.7,8.9-3.6,8.9-9.8-3.4-9.7-8.9-9.7ZM80,19.3c-3.2,0-3.6-3.9-3.6-6.7s.5-6.8,3.7-6.8,3.7,3.8,3.7,6.8-.5,6.7-3.7,6.7Z"/>
    <rect class="st0" x="28.4" y="7.3" width="5.1" height="14.7"/>
    <path class="st1" d="M66.8,11.9c1.9,0,3.4-1.3,3.4-4.2,0-4.1-4.1-4.9-7.2-4.9h-8.6v19.2h5.1s0-8.2,0-8.2h2c2.4,0,3.4,0,3.4,2,0,6.1,0,.7,0,6.3h5.1v-7c-.2-1.2.3-3.1-3.1-3.1ZM61.5,10.3h-2.1s0-3.8,0-3.8h2.1c1.7,0,3.5-.1,3.5,1.9s-1.9,1.9-3.5,1.9Z"/>
  </g>
</svg>