<?xml version="1.0" encoding="utf-8"?>
<!-- Generator: Adobe Illustrator 25.3.1, SVG Export Plug-In . SVG Version: 6.00 Build 0)  -->
<svg version="1.1" id="Layer_1" xmlns="http://www.w3.org/2000/svg" xmlns:xlink="http://www.w3.org/1999/xlink" x="0px" y="0px"
	 viewBox="0 0 679 579" style="enable-background:new 0 0 679 579;" xml:space="preserve">
<style type="text/css">
	.st0{fill:#06C167;}
</style>
<rect x="-0.1" class="st0" width="679.1" height="579"/>
<path d="M326.7,392.5c0.18-16.95-13.41-30.84-30.36-31.02c-16.95-0.18-30.84,13.41-31.02,30.36c-0.18,16.95,13.41,30.84,30.36,31.02
	c0.11,0,0.21,0,0.32,0c16.72,0.24,30.46-13.12,30.7-29.84C326.7,392.85,326.7,392.67,326.7,392.5 M351.77,342.83v99.35h-25.54v-9
	c-9.1,7.5-20.54,11.57-32.33,11.5c-30.23,0-53.89-23.22-53.89-52.21s23.66-52.2,53.89-52.2c11.79-0.07,23.23,4,32.33,11.5v-9
	L351.77,342.83z M436.67,419.64h-19.21c-5.85,0-9.6-2.52-9.6-7.81v-46.46h28.81v-22.54h-28.81v-28.29h-25.77v28.29h-19.45v22.54
	h19.45v52.89c0,13.34,9.61,23.92,26.94,23.92h27.64L436.67,419.64z M494.89,444.71c29.52,0,46.15-13.8,46.15-32.88
	c0-13.58-9.84-23.7-30.46-28.07l-21.78-4.37c-12.65-2.29-16.64-4.59-16.64-9.19c0-6,6.1-9.66,17.34-9.66
	c12.18,0,21.08,3.22,23.66,14.26h25.54c-1.41-20.7-16.64-34.5-47.56-34.5c-26.71,0-45.45,10.81-45.45,31.74
	c0,14.48,10.31,23.92,32.57,28.51l24.36,5.52c9.61,1.84,12.18,4.37,12.18,8.29c0,6.2-7.26,10.11-19,10.11
	c-14.75,0-23.19-3.22-26.47-14.26h-25.75C447.33,430.91,463.03,444.71,494.89,444.71 M137,307.64h96.29v23H163v32.89h68.41v22.31
	H163v33.34h70.29v23H137V307.64z"/>
<path d="M538.7,191.1V173h-6.85c-11,0-19,5-23.89,12.88v-12.07h-19.58v98h19.78v-55.72c0-15.18,9.39-25,22.32-25L538.7,191.1z
	 M396.56,213.78c3.53-15,15.86-25,30.55-25s27,10,30.34,25H396.56z M427.5,171.88c-28.1-0.23-51.07,22.36-51.3,50.46
	c0,0.16,0,0.32,0,0.48c0,29.21,23.1,51.12,53.06,51.12c18.21,0,33.08-7.88,43.07-20.95L458,242.61
	c-7.44,9.8-17.23,14.42-28.78,14.42c-16.38,0.12-30.42-11.7-33.09-27.87h81.25v-6.34c0-29.22-21.14-50.94-49.92-50.94 M314.53,257
	c-18.78-0.14-33.88-15.48-33.74-34.26c0.14-18.78,15.48-33.88,34.26-33.74c18.68,0.14,33.74,15.32,33.74,34
	c-0.06,18.84-15.38,34.06-34.22,34C314.56,257,314.54,257,314.53,257 M260.69,271.79h19.58v-12.3c9.47,9.4,22.29,14.66,35.63,14.61
	c29.37,0,52.47-22.87,52.47-51.12c0-28.44-23.1-51.32-52.47-51.32c-13.29-0.05-26.04,5.21-35.43,14.61v-49h-19.78V271.79z
	 M191.19,256.03c19,0,33.67-14.41,33.67-35.75v-83h20.56v134.54h-20.36v-12.49c-9.2,9.42-21.93,14.8-36.22,14.8
	c-29.37,0-51.88-20.95-51.88-52.66v-84.18h20.56v83C157.52,242.02,172,256.04,191.19,256.03"/>
</svg>
